<svg width="71" height="44" viewBox="0 0 71 44" fill="none" xmlns="http://www.w3.org/2000/svg">
<path d="M17.1094 6.78125L22.5 13.6406L17.4844 17.0312C18.9115 17.8854 20.0521 18.901 20.9062 20.0781C21.7708 21.2448 22.4427 22.7552 22.9219 24.6094C23.1406 25.5052 23.3646 26.1615 23.5938 26.5781C23.75 26.849 24.0417 27.1719 24.4688 27.5469L26.0312 26.2188L26.5625 26.7812L22.7812 30C22.0208 29.5208 21.474 29.0104 21.1406 28.4688C20.901 28.1042 20.4635 26.8698 19.8281 24.7656C19.4844 23.651 19.0469 22.6979 18.5156 21.9062C17.9844 21.1146 17.4219 20.5208 16.8281 20.125C16.2344 19.7188 15.4375 19.3594 14.4375 19.0469L13.375 19.7344V26.2188C14.3229 26.5312 15.3229 26.974 16.375 27.5469L18 26.1094L18.5 26.6562L14.4375 30C12.9583 29.25 11.6719 28.724 10.5781 28.4219C9.49479 28.1198 8.40104 27.9688 7.29688 27.9688C5.91146 27.9688 4.57812 28.1979 3.29688 28.6562C2.61979 28.9062 1.86458 29.3542 1.03125 30L0.609375 29.625C1.64062 28.3021 2.67708 27.3281 3.71875 26.7031C4.77083 26.0781 6.05729 25.6562 7.57812 25.4375V24.7344C7.57812 23.724 7.44792 22.901 7.1875 22.2656C6.92708 21.6198 6.45312 20.9479 5.76562 20.25C5.07812 19.5417 4.35417 18.9635 3.59375 18.5156C3.10417 18.2344 2.41667 17.9531 1.53125 17.6719V17.0312C2.375 16.7188 3.41146 16.1458 4.64062 15.3125L7.57812 13.3438C7.57812 12 7.48438 11.0417 7.29688 10.4688C7.10938 9.88542 6.74479 9.40104 6.20312 9.01562C5.66146 8.63021 5.05729 8.4375 4.39062 8.4375C3.98438 8.4375 3.61458 8.5 3.28125 8.625C2.94792 8.75 2.53646 8.98438 2.04688 9.32812L1.53125 8.95312C2.34375 8.11979 3.07292 7.55729 3.71875 7.26562C4.375 6.96354 5.18229 6.8125 6.14062 6.8125C7.21354 6.8125 8.10417 7.02604 8.8125 7.45312C9.53125 7.88021 10.0677 8.46354 10.4219 9.20312C10.6302 9.65104 10.75 10.2969 10.7812 11.1406L17.1094 6.78125ZM15.0312 9.10938L13.375 10.2188V18.8594L19.4844 14.7812L15.0312 9.10938ZM12.6562 10.7188L10.7812 12.0312V25.5625C11.4062 25.6562 12.0312 25.7969 12.6562 25.9844V10.7188ZM7.57812 14.2188L4.10938 16.5625C4.76562 16.875 5.30729 17.1875 5.73438 17.5C6.17188 17.8125 6.78646 18.3333 7.57812 19.0625V14.2188ZM39.2812 14.0156L39.8438 14.2344C39.2812 15.1094 38.9219 15.7812 38.7656 16.25C38.6198 16.7083 38.5469 17.3333 38.5469 18.125V24.7812C38.5469 25.8854 38.6302 26.5781 38.7969 26.8594C38.974 27.1302 39.1823 27.2656 39.4219 27.2656C39.5469 27.2656 39.6771 27.2344 39.8125 27.1719C39.8958 27.1198 40.1406 26.9323 40.5469 26.6094L40.8906 27.125L37.4062 30C36.6042 29.375 36.0677 28.8177 35.7969 28.3281C35.526 27.8281 35.375 27.1354 35.3438 26.25L30.5938 30C28.8125 28.5417 27.9219 27.1042 27.9219 25.6875C27.9219 24.7396 28.1146 23.849 28.5 23.0156C29.0104 21.9219 29.8906 20.6458 31.1406 19.1875L29.2656 15.1875L29.4844 14.75C29.8906 14.7917 30.1927 14.8125 30.3906 14.8125C31.6198 14.8125 32.7031 14.3229 33.6406 13.3438C34.401 13.7917 35.2292 14.151 36.125 14.4219C37.0312 14.6927 37.724 14.8281 38.2031 14.8281C38.4219 14.8281 38.5885 14.7917 38.7031 14.7188C38.8177 14.6354 39.0104 14.401 39.2812 14.0156ZM35.3438 17L30 15.3594L31.9062 19.3906L35.3438 21V17ZM35.3438 21.6406L31.5625 19.875C30.9792 21.1458 30.6875 22.2604 30.6875 23.2188C30.6875 24.9062 31.4531 26.2969 32.9844 27.3906L35.3438 25.4844V21.6406ZM42.2188 16.0781L45.5 13.3438C46.3958 13.9479 46.974 14.474 47.2344 14.9219C47.5052 15.3698 47.6406 15.9844 47.6406 16.7656V17.1094L52.375 13.3438C53.9896 15.0417 54.7969 16.8594 54.7969 18.7969C54.7969 19.8385 54.5312 20.8802 54 21.9219C53.4688 22.9531 52.6354 23.9375 51.5 24.875C50.3646 25.8021 48.5312 27.0208 46 28.5312C44.8958 29.1979 44.2344 29.6198 44.0156 29.7969C43.5469 30.1615 43.2135 30.5156 43.0156 30.8594C42.8698 31.1094 42.7969 31.3906 42.7969 31.7031C42.7969 32.2344 43.0573 32.724 43.5781 33.1719C44.1094 33.6302 44.8073 33.8594 45.6719 33.8594C46.2969 33.8594 46.8125 33.75 47.2188 33.5312C47.4167 33.4271 47.6094 33.2031 47.7969 32.8594C47.9844 32.526 48.1458 32.3073 48.2812 32.2031C48.4167 32.099 48.5781 32.0469 48.7656 32.0469C48.974 32.0469 49.1406 32.1042 49.2656 32.2188C49.3906 32.3333 49.4531 32.4844 49.4531 32.6719C49.4531 33.0052 49.2083 33.3333 48.7188 33.6562C47.9688 34.1771 47.0208 34.4375 45.875 34.4375C44.6771 34.4375 43.7552 34.151 43.1094 33.5781C42.4635 33.0156 42.1406 32.3438 42.1406 31.5625C42.1406 30.7917 42.5 30.0417 43.2188 29.3125C43.5625 28.9583 43.776 28.7083 43.8594 28.5625C44.0885 28.1667 44.2448 27.8021 44.3281 27.4688C44.4115 27.125 44.4531 26.6458 44.4531 26.0312V18.5625C44.4531 17.5208 44.3333 16.8125 44.0938 16.4375C43.9062 16.1458 43.7031 16 43.4844 16C43.3073 16 43.0781 16.1354 42.7969 16.4062C42.7552 16.4479 42.6875 16.5104 42.5938 16.5938L42.2188 16.0781ZM47.6406 17.8281V26.7031C49.1094 25.6406 50.151 24.5365 50.7656 23.3906C51.3906 22.2344 51.7031 21.1354 51.7031 20.0938C51.7031 18.6875 51.1302 17.3125 49.9844 15.9688L47.6406 17.8281ZM64.9219 19.1406L68.5312 21.0312V27.6094C67.6562 27.6927 66.8646 27.9062 66.1562 28.25C65.4479 28.5938 64.6458 29.1771 63.75 30C62.9792 29.5417 62.3073 29.224 61.7344 29.0469C61.1719 28.8698 60.5729 28.7812 59.9375 28.7812C58.9583 28.7812 58.0885 29.0781 57.3281 29.6719C57.0469 29.8906 56.8438 30 56.7188 30C56.6042 30 56.4896 29.9427 56.375 29.8281C56.2604 29.7135 56.2031 29.599 56.2031 29.4844C56.2031 29.3594 56.3125 29.1927 56.5312 28.9844C56.6562 28.8594 56.8698 28.6198 57.1719 28.2656L58.5938 26.5L60.6094 23.8281L57.1875 21.9844V16.1562C58.2604 15.8229 59.099 15.4531 59.7031 15.0469C60.3177 14.6302 60.9062 14.0625 61.4688 13.3438C62.8021 13.9062 63.875 14.3021 64.6875 14.5312C65.2708 14.6875 65.8281 14.7656 66.3594 14.7656C66.9427 14.7656 67.3958 14.6406 67.7188 14.3906C68.0417 14.1302 68.2031 13.8594 68.2031 13.5781C68.2031 13.3906 68.099 13.2031 67.8906 13.0156C67.4844 12.651 67.2812 12.2969 67.2812 11.9531C67.2812 11.6302 67.3698 11.375 67.5469 11.1875C67.724 10.9896 67.9219 10.8906 68.1406 10.8906C68.4323 10.8906 68.6927 11.026 68.9219 11.2969C69.1615 11.5573 69.2812 11.9062 69.2812 12.3438C69.2812 12.7917 69.1875 13.2292 69 13.6562C68.8125 14.0833 68.4531 14.6354 67.9219 15.3125L64.9219 19.1406ZM60.3438 20.2188L62.4844 21.3281L65.8906 16.7969C65.1927 16.9948 64.5885 17.0938 64.0781 17.0938C62.7969 17.0938 61.5521 16.6667 60.3438 15.8125V20.2188ZM63.0312 21.6406L59.2656 26.6875C59.724 26.5312 60.151 26.4167 60.5469 26.3438C60.9427 26.2708 61.3021 26.2344 61.625 26.2344C62.8229 26.2344 64.0677 26.6302 65.3594 27.4219V22.8906L63.0312 21.6406Z" fill="#E83317"/>
<path d="M17.1094 6.78125L17.5025 6.4723C17.3394 6.26477 17.0431 6.21976 16.8257 6.3695L17.1094 6.78125ZM22.5 13.6406L22.78 14.0549C22.895 13.9771 22.9725 13.855 22.994 13.7179C23.0154 13.5807 22.9789 13.4408 22.8931 13.3317L22.5 13.6406ZM17.4844 17.0312L17.2044 16.617C17.0627 16.7127 16.9799 16.8742 16.9846 17.045C16.9893 17.2159 17.0809 17.3725 17.2276 17.4603L17.4844 17.0312ZM20.9062 20.0781L20.5016 20.3718L20.5045 20.3758L20.9062 20.0781ZM22.9219 24.6094L23.4076 24.4908L23.406 24.4843L22.9219 24.6094ZM23.5938 26.5781L23.1556 26.8191L23.1607 26.828L23.5938 26.5781ZM24.4688 27.5469L24.1388 27.9226C24.3253 28.0863 24.6035 28.0885 24.7926 27.9278L24.4688 27.5469ZM26.0312 26.2188L26.3948 25.8754C26.2121 25.6821 25.9101 25.6655 25.7074 25.8378L26.0312 26.2188ZM26.5625 26.7812L26.8866 27.162C26.991 27.0731 27.0543 26.9453 27.0618 26.8084C27.0692 26.6715 27.0201 26.5376 26.926 26.4379L26.5625 26.7812ZM22.7812 30L22.5147 30.423C22.6996 30.5396 22.9389 30.5224 23.1053 30.3807L22.7812 30ZM21.1406 28.4688L21.5665 28.2067C21.5639 28.2025 21.5612 28.1983 21.5585 28.1942L21.1406 28.4688ZM19.8281 24.7656L20.3068 24.6211L20.3059 24.6183L19.8281 24.7656ZM18.5156 21.9062L18.9308 21.6276L18.5156 21.9062ZM16.8281 20.125L16.5458 20.5377L16.5508 20.541L16.8281 20.125ZM14.4375 19.0469L14.5866 18.5696C14.4448 18.5253 14.2906 18.5464 14.1659 18.6271L14.4375 19.0469ZM13.375 19.7344L13.1034 19.3146C12.961 19.4067 12.875 19.5648 12.875 19.7344H13.375ZM13.375 26.2188H12.875C12.875 26.4346 13.0135 26.626 13.2185 26.6936L13.375 26.2188ZM16.375 27.5469L16.1359 27.986C16.3207 28.0866 16.5487 28.0608 16.7063 27.9214L16.375 27.5469ZM18 26.1094L18.369 25.772C18.1848 25.5705 17.8731 25.554 17.6687 25.7349L18 26.1094ZM18.5 26.6562L18.8177 27.0423C18.9236 26.9552 18.9891 26.8284 18.9987 26.6916C19.0084 26.5548 18.9615 26.4201 18.869 26.3189L18.5 26.6562ZM14.4375 30L14.2114 30.446C14.3885 30.5357 14.6019 30.5122 14.7552 30.3861L14.4375 30ZM10.5781 28.4219L10.4438 28.9035L10.445 28.9038L10.5781 28.4219ZM3.29688 28.6562L3.12846 28.1854L3.12369 28.1872L3.29688 28.6562ZM1.03125 30L0.699068 30.3737C0.878971 30.5336 1.14728 30.5427 1.33754 30.3952L1.03125 30ZM0.609375 29.625L0.215034 29.3176C0.0529547 29.5255 0.0801546 29.8236 0.277193 29.9987L0.609375 29.625ZM3.71875 26.7031L3.46338 26.2733L3.4615 26.2744L3.71875 26.7031ZM7.57812 25.4375L7.64931 25.9324C7.89542 25.897 8.07812 25.6861 8.07812 25.4375H7.57812ZM7.1875 22.2656L6.72377 22.4526L6.72485 22.4552L7.1875 22.2656ZM5.76562 20.25L5.40682 20.5982L5.40942 20.6009L5.76562 20.25ZM3.59375 18.5156L3.84753 18.0848L3.84281 18.0821L3.59375 18.5156ZM1.53125 17.6719H1.03125C1.03125 17.8897 1.17227 18.0825 1.37988 18.1484L1.53125 17.6719ZM1.53125 17.0312L1.35759 16.5624C1.16145 16.635 1.03125 16.8221 1.03125 17.0312H1.53125ZM4.64062 15.3125L4.36225 14.8971L4.36005 14.8986L4.64062 15.3125ZM7.57812 13.3438L7.85649 13.7591C7.995 13.6663 8.07812 13.5105 8.07812 13.3438H7.57812ZM7.29688 10.4688L6.82085 10.6218L6.82168 10.6243L7.29688 10.4688ZM2.04688 9.32812L1.75279 9.73249C1.92564 9.8582 2.15927 9.86014 2.33419 9.73733L2.04688 9.32812ZM1.53125 8.95312L1.17325 8.60407C1.07194 8.70798 1.02077 8.85078 1.03304 8.99539C1.04531 9.13999 1.1198 9.27213 1.23716 9.35749L1.53125 8.95312ZM3.71875 7.26562L3.92455 7.72132L3.92782 7.71982L3.71875 7.26562ZM8.8125 7.45312L8.55432 7.88132L8.55709 7.88297L8.8125 7.45312ZM10.4219 9.20312L10.8753 8.99225L10.8728 8.98717L10.4219 9.20312ZM10.7812 11.1406L10.2816 11.1591C10.2883 11.3414 10.3939 11.5056 10.5569 11.5875C10.72 11.6693 10.9147 11.6559 11.0649 11.5524L10.7812 11.1406ZM15.0312 9.10938L15.4245 8.80061C15.263 8.59491 14.9703 8.54841 14.753 8.69395L15.0312 9.10938ZM13.375 10.2188L13.0967 9.80333C12.9582 9.89615 12.875 10.052 12.875 10.2188H13.375ZM13.375 18.8594H12.875C12.875 19.0438 12.9766 19.2133 13.1392 19.3003C13.3019 19.3873 13.4992 19.3776 13.6526 19.2752L13.375 18.8594ZM19.4844 14.7812L19.762 15.1971C19.8778 15.1198 19.9562 14.9976 19.9781 14.8601C20.0001 14.7225 19.9637 14.582 19.8776 14.4725L19.4844 14.7812ZM12.6562 10.7188H13.1562C13.1562 10.5323 13.0525 10.3614 12.8872 10.2753C12.7218 10.1892 12.5223 10.2022 12.3695 10.3091L12.6562 10.7188ZM10.7812 12.0312L10.4945 11.6216C10.3609 11.7152 10.2812 11.8681 10.2812 12.0312H10.7812ZM10.7812 25.5625H10.2812C10.2812 25.81 10.4623 26.0203 10.7071 26.057L10.7812 25.5625ZM12.6562 25.9844L12.5126 26.4633C12.664 26.5087 12.8279 26.4799 12.9547 26.3855C13.0815 26.2912 13.1562 26.1424 13.1562 25.9844H12.6562ZM7.57812 14.2188H8.07812C8.07812 14.0338 7.97602 13.8639 7.81268 13.7772C7.64934 13.6904 7.45145 13.7009 7.2982 13.8045L7.57812 14.2188ZM4.10938 16.5625L3.82945 16.1482C3.6808 16.2486 3.59735 16.421 3.61078 16.5999C3.6242 16.7788 3.73244 16.9368 3.89441 17.0139L4.10938 16.5625ZM5.73438 17.5L5.4391 17.9035L5.44376 17.9069L5.73438 17.5ZM7.57812 19.0625L7.23939 19.4303C7.38539 19.5648 7.59712 19.6001 7.77891 19.5204C7.9607 19.4407 8.07812 19.261 8.07812 19.0625H7.57812ZM16.7162 7.0902L22.1069 13.9496L22.8931 13.3317L17.5025 6.4723L16.7162 7.0902ZM22.22 13.2264L17.2044 16.617L17.7644 17.4455L22.78 14.0549L22.22 13.2264ZM17.2276 17.4603C18.605 18.2847 19.6924 19.2566 20.5016 20.3718L21.3109 19.7845C20.4118 18.5454 19.2179 17.4861 17.7412 16.6022L17.2276 17.4603ZM20.5045 20.3758C21.3207 21.4772 21.9698 22.9238 22.4378 24.7345L23.406 24.4843C22.9156 22.5866 22.2209 21.0124 21.308 19.7804L20.5045 20.3758ZM22.4361 24.728C22.6575 25.6345 22.8938 26.343 23.1556 26.8191L24.0319 26.3372C23.8354 25.9799 23.6237 25.3759 23.4076 24.4908L22.4361 24.728ZM23.1607 26.828C23.358 27.1701 23.6985 27.536 24.1388 27.9226L24.7987 27.1712C24.3848 26.8078 24.142 26.5279 24.0268 26.3283L23.1607 26.828ZM24.7926 27.9278L26.3551 26.5997L25.7074 25.8378L24.1449 27.1659L24.7926 27.9278ZM25.6677 26.5621L26.199 27.1246L26.926 26.4379L26.3948 25.8754L25.6677 26.5621ZM26.2384 26.4005L22.4572 29.6193L23.1053 30.3807L26.8866 27.162L26.2384 26.4005ZM23.0478 29.577C22.3271 29.1228 21.8467 28.662 21.5665 28.2067L20.7148 28.7308C21.1013 29.3588 21.7146 29.9188 22.5147 30.423L23.0478 29.577ZM21.5585 28.1942C21.4775 28.0709 21.3264 27.7296 21.1041 27.1025C20.8891 26.496 20.6235 25.6699 20.3068 24.6211L19.3495 24.9102C19.6682 25.9655 19.939 26.8086 20.1615 27.4366C20.3768 28.0438 20.5642 28.502 20.7228 28.7433L21.5585 28.1942ZM20.3059 24.6183C19.9509 23.4671 19.4945 22.4676 18.9308 21.6276L18.1004 22.1849C18.5993 22.9282 19.0179 23.835 19.3503 24.913L20.3059 24.6183ZM18.9308 21.6276C18.3746 20.7988 17.7687 20.1511 17.1055 19.709L16.5508 20.541C17.075 20.8905 17.5941 21.4303 18.1004 22.1849L18.9308 21.6276ZM17.1105 19.7123C16.4617 19.2685 15.6145 18.8908 14.5866 18.5696L14.2884 19.5241C15.2605 19.8279 16.007 20.169 16.5458 20.5377L17.1105 19.7123ZM14.1659 18.6271L13.1034 19.3146L13.6466 20.1542L14.7091 19.4667L14.1659 18.6271ZM12.875 19.7344V26.2188H13.875V19.7344H12.875ZM13.2185 26.6936C14.1328 26.9951 15.1051 27.4247 16.1359 27.986L16.6141 27.1078C15.5407 26.5232 14.513 26.0674 13.5315 25.7439L13.2185 26.6936ZM16.7063 27.9214L18.3313 26.4839L17.6687 25.7349L16.0437 27.1724L16.7063 27.9214ZM17.631 26.4468L18.131 26.9936L18.869 26.3189L18.369 25.772L17.631 26.4468ZM18.1823 26.2702L14.1198 29.6139L14.7552 30.3861L18.8177 27.0423L18.1823 26.2702ZM14.6636 29.554C13.167 28.7952 11.8481 28.2539 10.7112 27.9399L10.445 28.9038C11.4956 29.194 12.7497 29.7048 14.2114 30.446L14.6636 29.554ZM10.7124 27.9402C9.58619 27.6262 8.44728 27.4688 7.29688 27.4688V28.4688C8.35481 28.4688 9.4034 28.6134 10.4438 28.9035L10.7124 27.9402ZM7.29688 27.4688C5.85512 27.4688 4.46475 27.7074 3.12846 28.1855L3.46529 29.127C4.6915 28.6884 5.9678 28.4688 7.29688 28.4688V27.4688ZM3.12369 28.1872C2.3822 28.461 1.58183 28.9407 0.724964 29.6048L1.33754 30.3952C2.14734 29.7676 2.85738 29.3515 3.47006 29.1253L3.12369 28.1872ZM1.36343 29.6263L0.941557 29.2513L0.277193 29.9987L0.699068 30.3737L1.36343 29.6263ZM1.00372 29.9324C2.01053 28.6408 3.00304 27.7156 3.976 27.1319L3.4615 26.2744C2.35113 26.9406 1.27072 27.9633 0.215034 29.3176L1.00372 29.9324ZM3.97412 27.133C4.95724 26.549 6.17751 26.1441 7.64931 25.9324L7.50694 24.9426C5.93707 25.1684 4.58443 25.6073 3.46338 26.2733L3.97412 27.133ZM8.07812 25.4375V24.7344H7.07812V25.4375H8.07812ZM8.07812 24.7344C8.07812 23.6869 7.94398 22.793 7.65015 22.076L6.72485 22.4552C6.95185 23.0091 7.07812 23.761 7.07812 24.7344H8.07812ZM7.65122 22.0786C7.35827 21.3521 6.83816 20.6263 6.12183 19.8991L5.40942 20.6009C6.06809 21.2695 6.4959 21.8875 6.72378 22.4526L7.65122 22.0786ZM6.12442 19.9018C5.40939 19.1651 4.65073 18.5579 3.84752 18.0848L3.33998 18.9464C4.05761 19.3692 4.74686 19.9183 5.40683 20.5982L6.12442 19.9018ZM3.84281 18.0821C3.30893 17.7754 2.58327 17.4814 1.68262 17.1953L1.37988 18.1484C2.25006 18.4248 2.89941 18.6934 3.34469 18.9492L3.84281 18.0821ZM2.03125 17.6719V17.0312H1.03125V17.6719H2.03125ZM1.70491 17.5001C2.6028 17.1676 3.67728 16.5697 4.9212 15.7264L4.36005 14.8986C3.14563 15.722 2.1472 16.2699 1.35759 16.5624L1.70491 17.5001ZM4.91899 15.7278L7.85649 13.7591L7.29976 12.9284L4.36226 14.8972L4.91899 15.7278ZM8.07812 13.3438C8.07812 11.9959 7.98631 10.9678 7.77207 10.3132L6.82168 10.6243C6.98244 11.1155 7.07812 12.0041 7.07812 13.3438H8.07812ZM7.77289 10.3157C7.54954 9.6209 7.11462 9.05053 6.493 8.60823L5.91325 9.42302C6.37497 9.75155 6.66921 10.1499 6.82086 10.6218L7.77289 10.3157ZM6.493 8.60823C5.86642 8.16239 5.16088 7.9375 4.39062 7.9375V8.9375C4.95371 8.9375 5.45649 9.09802 5.91325 9.42302L6.493 8.60823ZM4.39062 7.9375C3.93278 7.9375 3.50249 8.00803 3.10569 8.15684L3.45681 9.09316C3.72667 8.99197 4.03597 8.9375 4.39062 8.9375V7.9375ZM3.10569 8.15684C2.71501 8.30334 2.26372 8.56493 1.75956 8.91892L2.33419 9.73733C2.80919 9.40382 3.18083 9.19666 3.45681 9.09316L3.10569 8.15684ZM2.34096 8.92376L1.82534 8.54876L1.23716 9.35749L1.75279 9.73249L2.34096 8.92376ZM1.88925 9.30218C2.68252 8.48856 3.36062 7.97599 3.92454 7.72131L3.51296 6.80994C2.78522 7.1386 2.00498 7.75102 1.17325 8.60407L1.88925 9.30218ZM3.92782 7.71982C4.50079 7.45607 5.23202 7.3125 6.14062 7.3125V6.3125C5.13256 6.3125 4.24921 6.47101 3.50968 6.81143L3.92782 7.71982ZM6.14062 7.3125C7.14904 7.3125 7.94384 7.51323 8.55433 7.88131L9.07067 7.02494C8.26449 6.53885 7.27804 6.3125 6.14062 6.3125V7.3125ZM8.55709 7.88297C9.19273 8.26067 9.66027 8.77037 9.97092 9.41908L10.8728 8.98717C10.4752 8.15672 9.86977 7.49975 9.06791 7.02328L8.55709 7.88297ZM9.96851 9.41399C10.1356 9.77323 10.2513 10.3414 10.2816 11.1591L11.2809 11.1221C11.2487 10.2524 11.1248 9.52885 10.8752 8.99226L9.96851 9.41399ZM11.0649 11.5524L17.393 7.193L16.8257 6.3695L10.4976 10.7289L11.0649 11.5524ZM14.753 8.69395L13.0967 9.80333L13.6533 10.6342L15.3095 9.5248L14.753 8.69395ZM12.875 10.2188V18.8594H13.875V10.2188H12.875ZM13.6526 19.2752L19.762 15.1971L19.2068 14.3654L13.0974 18.4435L13.6526 19.2752ZM19.8776 14.4725L15.4245 8.80061L14.638 9.41814L19.0911 15.09L19.8776 14.4725ZM12.3695 10.3091L10.4945 11.6216L11.068 12.4409L12.943 11.1284L12.3695 10.3091ZM10.2812 12.0312V25.5625H11.2812V12.0312H10.2812ZM10.7071 26.057C11.3078 26.1471 11.9096 26.2824 12.5126 26.4633L12.7999 25.5055C12.1529 25.3114 11.5047 25.1654 10.8554 25.068L10.7071 26.057ZM13.1562 25.9844V10.7188H12.1562V25.9844H13.1562ZM7.2982 13.8045L3.82945 16.1482L4.3893 16.9768L7.85805 14.633L7.2982 13.8045ZM3.89441 17.0139C4.53209 17.3176 5.0446 17.6148 5.43912 17.9035L6.02963 17.0965C5.56998 16.7602 4.99916 16.4324 4.32434 16.1111L3.89441 17.0139ZM5.44376 17.9069C5.85504 18.2006 6.45105 18.7042 7.23939 19.4303L7.91686 18.6947C7.12186 17.9625 6.48871 17.4244 6.02499 17.0931L5.44376 17.9069ZM8.07812 19.0625V14.2188H7.07812V19.0625H8.07812ZM39.2812 14.0156L39.4625 13.5496C39.2481 13.4662 39.0044 13.5399 38.8722 13.7282L39.2812 14.0156ZM39.8438 14.2344L40.2643 14.5048C40.3455 14.3785 40.3656 14.2225 40.3193 14.0798C40.2729 13.9371 40.1648 13.8228 40.025 13.7684L39.8438 14.2344ZM38.7656 16.25L38.2912 16.0919L38.2892 16.0984L38.7656 16.25ZM38.7969 26.8594L38.3667 27.1143C38.3705 27.1206 38.3744 27.1268 38.3784 27.133L38.7969 26.8594ZM39.8125 27.1719L40.022 27.6259C40.0411 27.617 40.0597 27.607 40.0775 27.5959L39.8125 27.1719ZM40.5469 26.6094L40.9629 26.332C40.8853 26.2156 40.7625 26.1371 40.6244 26.1154C40.4862 26.0937 40.3452 26.1309 40.2358 26.218L40.5469 26.6094ZM40.8906 27.125L41.2088 27.5107C41.4067 27.3474 41.4489 27.061 41.3067 26.8476L40.8906 27.125ZM37.4062 30L37.0989 30.3944C37.2837 30.5384 37.5438 30.5348 37.7245 30.3857L37.4062 30ZM35.7969 28.3281L35.3572 28.5663L35.3594 28.5702L35.7969 28.3281ZM35.3438 26.25L35.8434 26.2324C35.8368 26.044 35.7248 25.8754 35.5538 25.7963C35.3828 25.7171 35.1818 25.7408 35.0339 25.8576L35.3438 26.25ZM30.5938 30L30.277 30.3869C30.4587 30.5356 30.7193 30.5379 30.9036 30.3924L30.5938 30ZM28.5 23.0156L28.0469 22.8042L28.0462 22.8057L28.5 23.0156ZM31.1406 19.1875L31.5203 19.5129C31.6482 19.3636 31.6768 19.1533 31.5934 18.9753L31.1406 19.1875ZM29.2656 15.1875L28.8184 14.9639C28.75 15.1007 28.748 15.2612 28.8129 15.3997L29.2656 15.1875ZM29.4844 14.75L29.5354 14.2526C29.3285 14.2314 29.1302 14.3404 29.0372 14.5264L29.4844 14.75ZM33.6406 13.3438L33.8944 12.9129C33.6945 12.7952 33.4399 12.8304 33.2795 12.998L33.6406 13.3438ZM36.125 14.4219L35.9803 14.9005L35.9818 14.9009L36.125 14.4219ZM38.7031 14.7188L38.9716 15.1406C38.9803 15.135 38.9888 15.1292 38.9972 15.1231L38.7031 14.7188ZM35.3438 17H35.8438C35.8438 16.7804 35.7004 16.5865 35.4905 16.522L35.3438 17ZM30 15.3594L30.1467 14.8814C29.9574 14.8233 29.7516 14.8824 29.622 15.0321C29.4923 15.1819 29.4633 15.3941 29.548 15.5731L30 15.3594ZM31.9062 19.3906L31.4542 19.6044C31.504 19.7096 31.5889 19.7941 31.6942 19.8435L31.9062 19.3906ZM35.3438 21L35.1317 21.4528C35.2866 21.5253 35.4678 21.5137 35.6121 21.4219C35.7564 21.3301 35.8438 21.171 35.8438 21H35.3438ZM35.3438 21.6406H35.8438C35.8438 21.4464 35.7313 21.2698 35.5553 21.1876L35.3438 21.6406ZM31.5625 19.875L31.774 19.422C31.6534 19.3656 31.5152 19.3597 31.3902 19.4056C31.2652 19.4515 31.1636 19.5454 31.1081 19.6664L31.5625 19.875ZM32.9844 27.3906L32.6938 27.7975C32.8765 27.928 33.1239 27.9207 33.2986 27.7795L32.9844 27.3906ZM35.3438 25.4844L35.658 25.8733C35.7755 25.7784 35.8438 25.6354 35.8438 25.4844H35.3438ZM39.1 14.4816L39.6625 14.7004L40.025 13.7684L39.4625 13.5496L39.1 14.4816ZM39.4232 13.964C38.8572 14.8443 38.4685 15.5602 38.2913 16.0919L39.24 16.4081C39.3753 16.0023 39.7053 15.3744 40.2643 14.5048L39.4232 13.964ZM38.2892 16.0984C38.1209 16.6271 38.0469 17.3106 38.0469 18.125H39.0469C39.0469 17.3561 39.1187 16.7895 39.2421 16.4016L38.2892 16.0984ZM38.0469 18.125V24.7812H39.0469V18.125H38.0469ZM38.0469 24.7812C38.0469 25.3432 38.0679 25.8145 38.113 26.1886C38.1556 26.5432 38.2264 26.8774 38.3667 27.1143L39.227 26.6045C39.2007 26.5601 39.1465 26.4073 39.1058 26.0692C39.0675 25.7506 39.0469 25.3234 39.0469 24.7812H38.0469ZM38.3784 27.133C38.612 27.4903 38.9571 27.7656 39.4219 27.7656V26.7656C39.4075 26.7656 39.3359 26.7702 39.2154 26.5858L38.3784 27.133ZM39.4219 27.7656C39.6318 27.7656 39.8334 27.7129 40.022 27.6259L39.603 26.7179C39.5207 26.7559 39.4619 26.7656 39.4219 26.7656V27.7656ZM40.0775 27.5959C40.1912 27.5248 40.464 27.314 40.858 27.0008L40.2358 26.218C40.0336 26.3786 39.8735 26.5041 39.7546 26.5952C39.695 26.6409 39.6472 26.6767 39.6104 26.7036C39.5921 26.717 39.5774 26.7275 39.566 26.7354C39.5604 26.7393 39.556 26.7423 39.5527 26.7445C39.551 26.7456 39.5498 26.7464 39.5489 26.747C39.5484 26.7473 39.5481 26.7475 39.5478 26.7477C39.5476 26.7478 39.5475 26.7479 39.5475 26.7479L40.0775 27.5959ZM40.1308 26.8867L40.4746 27.4024L41.3067 26.8476L40.9629 26.332L40.1308 26.8867ZM40.5724 26.7393L37.088 29.6143L37.7245 30.3857L41.2088 27.5107L40.5724 26.7393ZM37.7136 29.6056C36.9283 28.9937 36.4559 28.4865 36.2344 28.0861L35.3594 28.5702C35.6795 29.149 36.28 29.7563 37.0989 30.3944L37.7136 29.6056ZM36.2365 28.09C36.0173 27.6853 35.8733 27.0794 35.8434 26.2324L34.8441 26.2676C34.8767 27.1914 35.0348 27.9709 35.3572 28.5663L36.2365 28.09ZM35.0339 25.8576L30.2839 29.6076L30.9036 30.3924L35.6536 26.6424L35.0339 25.8576ZM30.9105 29.6131C29.1737 28.1912 28.4219 26.8814 28.4219 25.6875H27.4219C27.4219 27.3269 28.4513 28.8922 30.277 30.3869L30.9105 29.6131ZM28.4219 25.6875C28.4219 24.8097 28.5998 23.9909 28.9538 23.2255L28.0462 22.8057C27.6293 23.707 27.4219 24.6695 27.4219 25.6875H28.4219ZM28.9531 23.2271C29.4364 22.1913 30.2846 20.9545 31.5203 19.5129L30.761 18.8621C29.4967 20.3371 28.5844 21.6524 28.0469 22.8042L28.9531 23.2271ZM31.5934 18.9753L29.7184 14.9753L28.8129 15.3997L30.6879 19.3997L31.5934 18.9753ZM29.7128 15.4111L29.9316 14.9736L29.0372 14.5264L28.8184 14.9639L29.7128 15.4111ZM29.4334 15.2474C29.8427 15.2894 30.1659 15.3125 30.3906 15.3125V14.3125C30.2195 14.3125 29.9385 14.294 29.5354 14.2526L29.4334 15.2474ZM30.3906 15.3125C31.7709 15.3125 32.9807 14.756 34.0018 13.6895L33.2795 12.998C32.4256 13.8898 31.4686 14.3125 30.3906 14.3125V15.3125ZM33.3869 13.7746C34.1836 14.2439 35.0486 14.6188 35.9803 14.9005L36.2697 13.9433C35.4097 13.6833 34.6185 13.3395 33.8944 12.9129L33.3869 13.7746ZM35.9818 14.9009C36.8986 15.1749 37.6485 15.3281 38.2031 15.3281V14.3281C37.7994 14.3281 37.1639 14.2105 36.2682 13.9428L35.9818 14.9009ZM38.2031 15.3281C38.4643 15.3281 38.7416 15.2869 38.9716 15.1406L38.4347 14.2969C38.4378 14.2949 38.4254 14.3036 38.3853 14.3123C38.3453 14.3211 38.2861 14.3281 38.2031 14.3281V15.3281ZM38.9972 15.1231C39.1094 15.0415 39.2199 14.9195 39.3198 14.798C39.4273 14.6673 39.5512 14.5012 39.6903 14.3031L38.8722 13.7282C38.7405 13.9155 38.6326 14.0592 38.5474 14.1629C38.5048 14.2147 38.4707 14.2531 38.4443 14.2803C38.4162 14.3094 38.4052 14.3172 38.409 14.3144L38.9972 15.1231ZM35.4905 16.522L30.1467 14.8814L29.8533 15.8374L35.197 17.478L35.4905 16.522ZM29.548 15.5731L31.4542 19.6044L32.3583 19.1769L30.452 15.1456L29.548 15.5731ZM31.6942 19.8435L35.1317 21.4528L35.5558 20.5472L32.1183 18.9378L31.6942 19.8435ZM35.8438 21V17H34.8438V21H35.8438ZM35.5553 21.1876L31.774 19.422L31.351 20.328L35.1322 22.0937L35.5553 21.1876ZM31.1081 19.6664C30.5074 20.975 30.1875 22.1632 30.1875 23.2188H31.1875C31.1875 22.3576 31.4509 21.3166 32.0169 20.0836L31.1081 19.6664ZM30.1875 23.2188C30.1875 25.0881 31.0487 26.6224 32.6938 27.7975L33.275 26.9838C31.8576 25.9713 31.1875 24.7244 31.1875 23.2188H30.1875ZM33.2986 27.7795L35.658 25.8733L35.0295 25.0955L32.6701 27.0017L33.2986 27.7795ZM35.8438 25.4844V21.6406H34.8438V25.4844H35.8438ZM42.2188 16.0781L41.8987 15.694C41.6963 15.8626 41.6595 16.1592 41.8144 16.3722L42.2188 16.0781ZM45.5 13.3438L45.7796 12.9292C45.5952 12.8048 45.3508 12.8172 45.1799 12.9596L45.5 13.3438ZM47.2344 14.9219L46.8021 15.1732L46.8065 15.1806L47.2344 14.9219ZM47.6406 17.1094H47.1406C47.1406 17.3013 47.2505 17.4763 47.4234 17.5597C47.5963 17.6431 47.8016 17.6202 47.9519 17.5007L47.6406 17.1094ZM52.375 13.3438L52.7373 12.9992C52.5588 12.8115 52.2665 12.7912 52.0638 12.9524L52.375 13.3438ZM54 21.9219L54.4445 22.1509L54.4454 22.149L54 21.9219ZM51.5 24.875L51.8162 25.2623L51.8183 25.2606L51.5 24.875ZM46 28.5312L45.7438 28.1019L45.7416 28.1032L46 28.5312ZM44.0156 29.7969L44.3227 30.1916L44.3302 30.1855L44.0156 29.7969ZM43.0156 30.8594L43.4475 31.1113L43.4489 31.1089L43.0156 30.8594ZM43.5781 33.1719L43.9047 32.7933L43.9041 32.7928L43.5781 33.1719ZM47.2188 33.5312L46.9859 33.0888L46.9817 33.091L47.2188 33.5312ZM47.7969 32.8594L47.3611 32.6142L47.3579 32.6199L47.7969 32.8594ZM48.7188 33.6562L48.4434 33.2387L48.4336 33.2456L48.7188 33.6562ZM43.1094 33.5781L43.4412 33.2041L43.4378 33.2011L43.1094 33.5781ZM43.2188 29.3125L43.5748 29.6635L43.5775 29.6607L43.2188 29.3125ZM43.8594 28.5625L43.4267 28.312L43.4253 28.3144L43.8594 28.5625ZM44.3281 27.4688L44.8132 27.59L44.8141 27.5866L44.3281 27.4688ZM44.0938 16.4375L44.5151 16.1683L44.5143 16.1671L44.0938 16.4375ZM42.7969 16.4062L42.45 16.046L42.4433 16.0527L42.7969 16.4062ZM42.5938 16.5938L42.1894 16.8878C42.2724 17.002 42.3997 17.0757 42.54 17.0909C42.6803 17.106 42.8205 17.0612 42.9259 16.9675L42.5938 16.5938ZM47.6406 17.8281L47.3299 17.4364C47.2103 17.5313 47.1406 17.6755 47.1406 17.8281H47.6406ZM47.6406 26.7031H47.1406C47.1406 26.891 47.2459 27.0629 47.4132 27.1484C47.5804 27.2338 47.7815 27.2183 47.9337 27.1082L47.6406 26.7031ZM50.7656 23.3906L50.3258 23.1529L50.325 23.1543L50.7656 23.3906ZM49.9844 15.9688L50.3648 15.6443C50.1901 15.4394 49.8846 15.4097 49.6736 15.577L49.9844 15.9688ZM42.5388 16.4622L45.8201 13.7279L45.1799 12.9596L41.8987 15.694L42.5388 16.4622ZM45.2204 13.7583C46.1073 14.3564 46.6024 14.8297 46.8021 15.1732L47.6666 14.6706C47.3455 14.1182 46.6844 13.5394 45.7796 12.9292L45.2204 13.7583ZM46.8065 15.1806C47.0124 15.5211 47.1406 16.0337 47.1406 16.7656H48.1406C48.1406 15.935 47.998 15.2185 47.6622 14.6632L46.8065 15.1806ZM47.1406 16.7656V17.1094H48.1406V16.7656H47.1406ZM47.9519 17.5007L52.6862 13.7351L52.0638 12.9524L47.3294 16.7181L47.9519 17.5007ZM52.0127 13.6883C53.5585 15.3139 54.2969 17.0135 54.2969 18.7969H55.2969C55.2969 16.7052 54.4207 14.7694 52.7373 12.9992L52.0127 13.6883ZM54.2969 18.7969C54.2969 19.7503 54.0544 20.7147 53.5546 21.6947L54.4454 22.149C55.0081 21.0457 55.2969 19.9267 55.2969 18.7969H54.2969ZM53.5555 21.6929C53.0624 22.6501 52.2784 23.5839 51.1817 24.4894L51.8183 25.2606C52.9924 24.2911 53.8751 23.2562 54.4445 22.1509L53.5555 21.6929ZM51.1838 24.4877C50.0779 25.3906 48.2706 26.5941 45.7438 28.1019L46.2562 28.9606C48.7919 27.4475 50.6512 26.2135 51.8162 25.2623L51.1838 24.4877ZM45.7416 28.1032C44.6511 28.7616 43.9531 29.2042 43.701 29.4083L44.3302 30.1855C44.5156 30.0354 45.1406 29.6342 46.2584 28.9593L45.7416 28.1032ZM43.7087 29.4022C43.2118 29.7886 42.8245 30.1893 42.5823 30.6099L43.4489 31.1089C43.6026 30.8419 43.882 30.5343 44.3226 30.1916L43.7087 29.4022ZM42.5837 30.6074C42.3898 30.94 42.2969 31.3094 42.2969 31.7031H43.2969C43.2969 31.4719 43.3498 31.2788 43.4475 31.1113L42.5837 30.6074ZM42.2969 31.7031C42.2969 32.4203 42.6555 33.0379 43.2521 33.551L43.9041 32.7928C43.4591 32.4101 43.2969 32.0485 43.2969 31.7031H42.2969ZM43.2515 33.5505C43.8933 34.1041 44.7163 34.3594 45.6719 34.3594V33.3594C44.8983 33.3594 44.3255 33.1563 43.9047 32.7933L43.2515 33.5505ZM45.6719 34.3594C46.3516 34.3594 46.9555 34.2409 47.4558 33.9715L46.9817 33.091C46.6695 33.2591 46.2422 33.3594 45.6719 33.3594V34.3594ZM47.4516 33.9737C47.7805 33.8006 48.0323 33.472 48.2358 33.0988L47.3579 32.6199C47.1865 32.9343 47.0528 33.0535 46.9859 33.0888L47.4516 33.9737ZM48.2327 33.1045C48.4181 32.7749 48.538 32.6364 48.5861 32.5994L47.9764 31.8068C47.7536 31.9782 47.5507 32.2772 47.3611 32.6142L48.2327 33.1045ZM48.5861 32.5994C48.6255 32.5691 48.677 32.5469 48.7656 32.5469V31.5469C48.4792 31.5469 48.2078 31.6288 47.9764 31.8068L48.5861 32.5994ZM48.7656 32.5469C48.8788 32.5469 48.9149 32.5756 48.9278 32.5873L49.6035 31.8502C49.3663 31.6328 49.0691 31.5469 48.7656 31.5469V32.5469ZM48.9278 32.5873C48.9379 32.5966 48.9531 32.608 48.9531 32.6719H49.9531C49.9531 32.3607 49.8434 32.0701 49.6035 31.8502L48.9278 32.5873ZM48.9531 32.6719C48.9531 32.7414 48.8981 32.939 48.4435 33.2389L48.994 34.0736C49.5186 33.7277 49.9531 33.269 49.9531 32.6719H48.9531ZM48.4336 33.2456C47.7864 33.6949 46.945 33.9375 45.875 33.9375V34.9375C47.0967 34.9375 48.1511 34.6592 49.0039 34.0669L48.4336 33.2456ZM45.875 33.9375C44.752 33.9375 43.9654 33.6691 43.4412 33.2041L42.7776 33.9522C43.545 34.633 44.6022 34.9375 45.875 34.9375V33.9375ZM43.4378 33.2011C42.8892 32.7233 42.6406 32.1842 42.6406 31.5625H41.6406C41.6406 32.5033 42.0379 33.308 42.781 33.9552L43.4378 33.2011ZM42.6406 31.5625C42.6406 30.9617 42.9171 30.3308 43.5748 29.6635L42.8627 28.9615C42.0829 29.7525 41.6406 30.6217 41.6406 31.5625H42.6406ZM43.5775 29.6607C43.9143 29.3138 44.1738 29.0201 44.2935 28.8106L43.4253 28.3144C43.3783 28.3965 43.2107 28.6029 42.86 28.9643L43.5775 29.6607ZM44.2921 28.813C44.5374 28.3892 44.7155 27.9808 44.8132 27.59L43.8431 27.3475C43.7741 27.6234 43.6397 27.9441 43.4267 28.312L44.2921 28.813ZM44.8141 27.5866C44.9111 27.1861 44.9531 26.661 44.9531 26.0312H43.9531C43.9531 26.6307 43.9118 27.0639 43.8422 27.3509L44.8141 27.5866ZM44.9531 26.0312V18.5625H43.9531V26.0312H44.9531ZM44.9531 18.5625C44.9531 18.025 44.9224 17.5576 44.8563 17.1666C44.7913 16.7821 44.6864 16.4364 44.5151 16.1683L43.6724 16.7067C43.7407 16.8136 43.8155 17.0096 43.8703 17.3334C43.924 17.6508 43.9531 18.0583 43.9531 18.5625H44.9531ZM44.5143 16.1671C44.2909 15.8195 43.9559 15.5 43.4844 15.5V16.5C43.4746 16.5 43.48 16.4946 43.5092 16.5155C43.5439 16.5405 43.6012 16.596 43.6732 16.7079L44.5143 16.1671ZM43.4844 15.5C43.2722 15.5 43.081 15.5791 42.9253 15.6711C42.7657 15.7654 42.607 15.895 42.4501 16.0461L43.1437 16.7664C43.268 16.6467 43.3645 16.5731 43.4341 16.532C43.5075 16.4886 43.5194 16.5 43.4844 16.5V15.5ZM42.4433 16.0527C42.4127 16.0833 42.3542 16.1377 42.2616 16.22L42.9259 16.9675C43.0208 16.8832 43.0977 16.8125 43.1504 16.7598L42.4433 16.0527ZM42.9981 16.2997L42.6231 15.784L41.8144 16.3722L42.1894 16.8878L42.9981 16.2997ZM47.1406 17.8281V26.7031H48.1406V17.8281H47.1406ZM47.9337 27.1082C49.4411 26.0178 50.5447 24.8604 51.2062 23.627L50.325 23.1543C49.7574 24.2125 48.7777 25.2635 47.3476 26.298L47.9337 27.1082ZM51.2055 23.6284C51.8598 22.4178 52.2031 21.2374 52.2031 20.0938H51.2031C51.2031 21.0334 50.9214 22.0509 50.3258 23.1529L51.2055 23.6284ZM52.2031 20.0938C52.2031 18.5406 51.5675 17.0547 50.3648 15.6443L49.6039 16.2932C50.6929 17.5703 51.2031 18.8344 51.2031 20.0938H52.2031ZM49.6736 15.577L47.3299 17.4364L47.9514 18.2198L50.2951 16.3605L49.6736 15.577ZM64.9219 19.1406L64.5283 18.8322C64.4367 18.9491 64.4018 19.1006 64.433 19.2457C64.4643 19.3909 64.5584 19.5147 64.6899 19.5835L64.9219 19.1406ZM68.5312 21.0312H69.0312C69.0312 20.8453 68.928 20.6746 68.7633 20.5883L68.5312 21.0312ZM68.5312 27.6094L68.5787 28.1071C68.8353 28.0827 69.0312 27.8672 69.0312 27.6094H68.5312ZM63.75 30L63.4945 30.4298C63.6843 30.5426 63.9256 30.5176 64.0882 30.3682L63.75 30ZM61.7344 29.0469L61.5842 29.5238L61.5867 29.5246L61.7344 29.0469ZM57.3281 29.6719L57.6351 30.0666L57.6358 30.066L57.3281 29.6719ZM56.5312 28.9844L56.8762 29.3466L56.8848 29.3379L56.5312 28.9844ZM57.1719 28.2656L57.5524 28.5902L57.5613 28.5792L57.1719 28.2656ZM58.5938 26.5L58.9832 26.8136C58.9865 26.8095 58.9897 26.8053 58.9929 26.8011L58.5938 26.5ZM60.6094 23.8281L61.0085 24.1292C61.0964 24.0128 61.129 23.8639 61.0978 23.7214C61.0667 23.5789 60.9749 23.4571 60.8465 23.388L60.6094 23.8281ZM57.1875 21.9844H56.6875C56.6875 22.1683 56.7884 22.3373 56.9503 22.4245L57.1875 21.9844ZM57.1875 16.1562L57.0392 15.6788C56.83 15.7437 56.6875 15.9373 56.6875 16.1562H57.1875ZM59.7031 15.0469L59.9821 15.4618L59.9837 15.4607L59.7031 15.0469ZM61.4688 13.3438L61.6631 12.8831C61.4551 12.7953 61.2141 12.8578 61.075 13.0356L61.4688 13.3438ZM64.6875 14.5312L64.5518 15.0125L64.5581 15.0142L64.6875 14.5312ZM67.7188 14.3906L68.0249 14.7861L68.0326 14.7798L67.7188 14.3906ZM67.8906 13.0156L68.2251 12.644L68.2246 12.6435L67.8906 13.0156ZM67.5469 11.1875L67.9105 11.5309L67.9195 11.5209L67.5469 11.1875ZM68.9219 11.2969L68.5402 11.6198C68.5446 11.6251 68.5492 11.6303 68.5539 11.6354L68.9219 11.2969ZM69 13.6562L68.5422 13.4553L69 13.6562ZM67.9219 15.3125L67.5285 15.0039L67.5283 15.0041L67.9219 15.3125ZM60.3438 20.2188H59.8438C59.8438 20.4055 59.9479 20.5767 60.1137 20.6627L60.3438 20.2188ZM62.4844 21.3281L62.2543 21.7721C62.4711 21.8844 62.7373 21.8237 62.884 21.6286L62.4844 21.3281ZM65.8906 16.7969L66.2903 17.0973C66.4193 16.9258 66.4243 16.691 66.3029 16.514C66.1815 16.337 65.9607 16.2573 65.7542 16.3158L65.8906 16.7969ZM60.3438 15.8125L60.6324 15.4042C60.4798 15.2964 60.2798 15.2826 60.1139 15.3685C59.9479 15.4544 59.8438 15.6256 59.8438 15.8125H60.3438ZM63.0312 21.6406L63.2678 21.2001C63.0496 21.083 62.7786 21.1432 62.6305 21.3416L63.0312 21.6406ZM59.2656 26.6875L58.8649 26.3885C58.7338 26.5641 58.7324 26.8046 58.8614 26.9817C58.9903 27.1589 59.2196 27.2315 59.427 27.1608L59.2656 26.6875ZM65.3594 27.4219L65.0981 27.8482C65.2524 27.9427 65.4458 27.9466 65.6037 27.8581C65.7616 27.7697 65.8594 27.6029 65.8594 27.4219H65.3594ZM65.3594 22.8906H65.8594C65.8594 22.7065 65.7581 22.5372 65.5959 22.4501L65.3594 22.8906ZM64.6899 19.5835L68.2992 21.4742L68.7633 20.5883L65.1539 18.6977L64.6899 19.5835ZM68.0312 21.0312V27.6094H69.0312V21.0312H68.0312ZM68.4838 27.1116C67.5563 27.2 66.7058 27.4275 65.938 27.8002L66.3745 28.6998C67.0234 28.385 67.7562 28.1855 68.5787 28.1071L68.4838 27.1116ZM65.938 27.8002C65.1689 28.1734 64.3261 28.7918 63.4118 29.6318L64.0882 30.3682C64.9655 29.5624 65.7269 29.0141 66.3745 28.6998L65.938 27.8002ZM64.0055 29.5702C63.2157 29.1006 62.5063 28.7621 61.882 28.5692L61.5867 29.5246C62.1083 29.6858 62.7426 29.9827 63.4945 30.4298L64.0055 29.5702ZM61.8845 28.57C61.2698 28.3764 60.6199 28.2812 59.9375 28.2812V29.2812C60.5259 29.2812 61.0739 29.3631 61.5842 29.5238L61.8845 28.57ZM59.9375 28.2812C58.8486 28.2812 57.8701 28.6143 57.0204 29.2778L57.6358 30.066C58.307 29.5419 59.068 29.2812 59.9375 29.2812V28.2812ZM57.0212 29.2772C56.8921 29.3776 56.7954 29.4413 56.7278 29.4777C56.6945 29.4957 56.6755 29.503 56.669 29.5052C56.6609 29.5079 56.68 29.5 56.7188 29.5V30.5C56.9077 30.5 57.0794 30.4242 57.2019 30.3582C57.3374 30.2852 57.4829 30.1849 57.6351 30.0666L57.0212 29.2772ZM56.7188 29.5C56.7322 29.5 56.7443 29.5017 56.7541 29.5042C56.7637 29.5066 56.7692 29.5092 56.7705 29.5098C56.7716 29.5104 56.7684 29.5089 56.7609 29.5033C56.7535 29.4977 56.7426 29.4886 56.7286 29.4746L56.0214 30.1817C56.1905 30.3508 56.4248 30.5 56.7188 30.5V29.5ZM56.7286 29.4746C56.7145 29.4605 56.7054 29.4496 56.6998 29.4422C56.6942 29.4348 56.6928 29.4315 56.6933 29.4326C56.6939 29.4339 56.6965 29.4395 56.6989 29.449C56.7014 29.4588 56.7031 29.4709 56.7031 29.4844H55.7031C55.7031 29.7783 55.8524 30.0126 56.0214 30.1817L56.7286 29.4746ZM56.7031 29.4844C56.7031 29.5258 56.6942 29.552 56.6918 29.5584C56.6894 29.5647 56.6908 29.5588 56.7032 29.54C56.7291 29.5004 56.7818 29.4363 56.8761 29.3464L56.1864 28.6223C56.062 28.7408 55.9506 28.8642 55.8671 28.9913C55.788 29.1118 55.7031 29.2823 55.7031 29.4844H56.7031ZM56.8848 29.3379C57.0257 29.1971 57.2511 28.9432 57.5523 28.5901L56.7915 27.9412C56.4885 28.2963 56.2868 28.5217 56.1777 28.6308L56.8848 29.3379ZM57.5613 28.5792L58.9832 26.8136L58.2043 26.1864L56.7825 27.952L57.5613 28.5792ZM58.9929 26.8011L61.0085 24.1292L60.2102 23.527L58.1946 26.1989L58.9929 26.8011ZM60.8465 23.388L57.4247 21.5442L56.9503 22.4245L60.3722 24.2683L60.8465 23.388ZM57.6875 21.9844V16.1562H56.6875V21.9844H57.6875ZM57.3358 16.6337C58.4329 16.2929 59.3221 15.9056 59.9821 15.4618L59.4241 14.632C58.8759 15.0006 58.088 15.3529 57.0392 15.6788L57.3358 16.6337ZM59.9837 15.4607C60.6498 15.0091 61.275 14.4025 61.8625 13.6519L61.075 13.0356C60.5375 13.7225 59.9856 14.2513 59.4225 14.633L59.9837 15.4607ZM61.2744 13.8044C62.6154 14.3702 63.7102 14.7751 64.5518 15.0125L64.8232 14.05C64.0398 13.8291 62.9887 13.4423 61.6631 12.8831L61.2744 13.8044ZM64.5581 15.0142C65.178 15.1803 65.779 15.2656 66.3594 15.2656V14.2656C65.8773 14.2656 65.3637 14.1947 64.8169 14.0483L64.5581 15.0142ZM66.3594 15.2656C67.0074 15.2656 67.5837 15.1275 68.0248 14.786L67.4127 13.9953C67.2079 14.1538 66.8781 14.2656 66.3594 14.2656V15.2656ZM68.0326 14.7798C68.4156 14.471 68.7031 14.0716 68.7031 13.5781H67.7031C67.7031 13.6471 67.6677 13.7895 67.4049 14.0014L68.0326 14.7798ZM68.7031 13.5781C68.7031 13.191 68.4863 12.8791 68.2251 12.644L67.5561 13.3873C67.6311 13.4547 67.6695 13.5065 67.6879 13.5397C67.6968 13.5556 67.7004 13.5661 67.7018 13.5713C67.7026 13.574 67.7029 13.5757 67.703 13.5766C67.7031 13.5775 67.7031 13.5779 67.7031 13.5781H68.7031ZM68.2246 12.6435C67.863 12.319 67.7812 12.0896 67.7812 11.9531H66.7812C66.7812 12.5042 67.1058 12.9831 67.5567 13.3877L68.2246 12.6435ZM67.7812 11.9531C67.7812 11.7242 67.8416 11.6036 67.9104 11.5308L67.1834 10.8442C66.898 11.1464 66.7812 11.5362 66.7812 11.9531H67.7812ZM67.9195 11.5209C68.0238 11.4044 68.0941 11.3906 68.1406 11.3906V10.3906C67.7496 10.3906 67.4241 10.5748 67.1743 10.8541L67.9195 11.5209ZM68.1406 11.3906C68.2536 11.3906 68.3835 11.4347 68.5402 11.6198L69.3036 10.9739C69.0019 10.6174 68.611 10.3906 68.1406 10.3906V11.3906ZM68.5539 11.6354C68.6897 11.783 68.7812 12.0006 68.7812 12.3438H69.7812C69.7812 11.8119 69.6332 11.3316 69.2898 10.9583L68.5539 11.6354ZM68.7812 12.3438C68.7812 12.7196 68.703 13.0889 68.5422 13.4553L69.4578 13.8572C69.672 13.3695 69.7812 12.8637 69.7812 12.3438H68.7812ZM68.5422 13.4553C68.3802 13.8242 68.0517 14.337 67.5285 15.0039L68.3152 15.6211C68.8545 14.9338 69.2448 14.3424 69.4578 13.8572L68.5422 13.4553ZM67.5283 15.0041L64.5283 18.8322L65.3154 19.449L68.3154 15.6209L67.5283 15.0041ZM60.1137 20.6627L62.2543 21.7721L62.7144 20.8842L60.5738 19.7748L60.1137 20.6627ZM62.884 21.6286L66.2903 17.0973L65.491 16.4964L62.0847 21.0277L62.884 21.6286ZM65.7542 16.3158C65.0837 16.506 64.5276 16.5938 64.0781 16.5938V17.5938C64.6495 17.5938 65.3018 17.4836 66.027 17.2779L65.7542 16.3158ZM64.0781 16.5938C62.9157 16.5938 61.7698 16.2083 60.6324 15.4042L60.0551 16.2208C61.3344 17.1251 62.6781 17.5938 64.0781 17.5938V16.5938ZM59.8438 15.8125V20.2188H60.8438V15.8125H59.8438ZM62.6305 21.3416L58.8649 26.3885L59.6664 26.9865L63.432 21.9396L62.6305 21.3416ZM59.427 27.1608C59.8667 27.0109 60.2699 26.9032 60.6375 26.8355L60.4563 25.852C60.0322 25.9301 59.5813 26.0516 59.1043 26.2142L59.427 27.1608ZM60.6375 26.8355C61.0104 26.7668 61.3388 26.7344 61.625 26.7344V25.7344C61.2654 25.7344 60.875 25.7749 60.4563 25.852L60.6375 26.8355ZM61.625 26.7344C62.7092 26.7344 63.8645 27.0921 65.0981 27.8482L65.6207 26.9956C64.271 26.1683 62.9366 25.7344 61.625 25.7344V26.7344ZM65.8594 27.4219V22.8906H64.8594V27.4219H65.8594ZM65.5959 22.4501L63.2678 21.2001L62.7947 22.0811L65.1229 23.3311L65.5959 22.4501Z" fill="#E83317"/>
<path d="M0.802734 43V34.8027H2.85352V38.0898H6.50391V34.8027H8.55469V43H6.50391V39.6777H2.85352V43H0.802734ZM11.1009 40.2285C11.1009 40.7012 11.2142 41.0801 11.4408 41.3652C11.6713 41.6465 11.974 41.7871 12.349 41.7871C12.7279 41.7871 13.0306 41.6465 13.2572 41.3652C13.4838 41.0801 13.597 40.7012 13.597 40.2285C13.597 39.7559 13.4818 39.377 13.2513 39.0918C13.0248 38.8027 12.724 38.6582 12.349 38.6582C11.9779 38.6582 11.6771 38.8027 11.4466 39.0918C11.2162 39.377 11.1009 39.7559 11.1009 40.2285ZM9.30211 40.2285C9.30211 39.373 9.58336 38.6777 10.1459 38.1426C10.7123 37.6035 11.4466 37.334 12.349 37.334C13.2552 37.334 13.9916 37.6035 14.558 38.1426C15.1283 38.6816 15.4134 39.377 15.4134 40.2285C15.4134 41.0762 15.1302 41.7676 14.5638 42.3027C13.9974 42.8379 13.2591 43.1055 12.349 43.1055C11.4466 43.1055 10.7123 42.8398 10.1459 42.3086C9.58336 41.7734 9.30211 41.0801 9.30211 40.2285ZM16.2253 38.6582H15.4284V38.2832L17.696 35.8223H17.9597V37.4453H19.8581V38.6582H17.9597V40.709C17.9597 41.1348 18.0202 41.4199 18.1413 41.5645C18.2624 41.7051 18.4831 41.7754 18.8034 41.7754C18.9597 41.7754 19.1237 41.7539 19.2956 41.7109C19.4714 41.6641 19.6589 41.5938 19.8581 41.5L19.8698 42.8066C19.5886 42.9121 19.3073 42.9902 19.0261 43.041C18.7448 43.0918 18.4655 43.1172 18.1882 43.1172C17.4812 43.1172 16.9773 42.9355 16.6765 42.5723C16.3757 42.209 16.2253 41.584 16.2253 40.6973V38.6582ZM25.6973 42.3906C25.3184 42.6367 24.918 42.8203 24.4962 42.9414C24.0782 43.0586 23.6309 43.1172 23.1544 43.1172C22.1973 43.1172 21.4473 42.8555 20.9044 42.332C20.3614 41.8086 20.0899 41.084 20.0899 40.1582C20.0899 39.3027 20.3555 38.6191 20.8868 38.1074C21.418 37.5918 22.1251 37.334 23.0079 37.334C23.879 37.334 24.5665 37.6133 25.0704 38.1719C25.5743 38.7266 25.8263 39.4922 25.8263 40.4688V40.5273H21.8946V40.5508C21.8946 40.9922 22.045 41.3418 22.3458 41.5996C22.6466 41.8535 23.0587 41.9805 23.5821 41.9805C23.9337 41.9805 24.2852 41.918 24.6368 41.793C24.9884 41.668 25.3419 41.4824 25.6973 41.2363V42.3906ZM21.9063 39.6777L24.0626 39.6719C24.0313 39.3125 23.922 39.0312 23.7345 38.8281C23.5509 38.625 23.3126 38.5234 23.0196 38.5234C22.7188 38.5234 22.4688 38.625 22.2696 38.8281C22.0743 39.0312 21.9532 39.3145 21.9063 39.6777ZM26.4213 43V34.8027H28.1733V43H26.4213ZM29.032 42.0625C29.032 41.7734 29.1336 41.5254 29.3367 41.3184C29.5398 41.1113 29.7879 41.0078 30.0809 41.0078C30.3777 41.0078 30.6277 41.1094 30.8309 41.3125C31.034 41.5156 31.1355 41.7656 31.1355 42.0625C31.1355 42.3516 31.032 42.5977 30.825 42.8008C30.618 43.0039 30.3699 43.1055 30.0809 43.1055C29.7879 43.1055 29.5398 43.0059 29.3367 42.8066C29.1336 42.6035 29.032 42.3555 29.032 42.0625Z" fill="#232221"/>
</svg>
